<?xml version="1.0" standalone="no"?><!DOCTYPE svg PUBLIC "-//W3C//DTD SVG 1.1//EN" "http://www.w3.org/Graphics/SVG/1.1/DTD/svg11.dtd"><svg t="1711730645440" class="icon" viewBox="0 0 1024 1024" version="1.1" xmlns="http://www.w3.org/2000/svg" p-id="16641" width="48" height="48" xmlns:xlink="http://www.w3.org/1999/xlink"><path d="M912.11169185 461.04697363c6.83516208 52.19578311 3.10689185 104.39156622-10.56343229 155.96597096-13.67032415 50.95302637-37.28270222 98.79916089-68.97299912 141.05289008-33.554432 44.1178643-74.56540445 80.15780978-122.41153896 107.49845808-42.25372918 24.23375645-86.99297185 41.01097245-134.83910637 49.08889125-21.74824297 3.72827022-44.1178643 5.59240533-66.48748563 5.59240533-24.23375645 0-48.46751289-2.48551348-72.07989096-6.83516208-8.07791882-1.24275675-14.91308089-5.59240533-19.88410786-12.4275674-4.34964859-6.83516208-6.2137837-14.91308089-4.97102697-22.36962133 1.24275675-8.07791882 6.2137837-14.91308089 12.42756742-19.88410785 6.83516208-4.34964859 14.91308089-6.2137837 22.9909997-4.97102697 39.14683733 7.45654045 78.91505303 7.45654045 118.06189038 0.62137838 40.38959408-6.83516208 78.91505303-21.12686459 113.71224177-41.63235083l1.86413511-1.24275673h0.62137837c40.38959408-23.61237808 74.56540445-54.05991822 102.52743112-90.72124207 27.3406483-36.03994548 47.22475615-76.42953955 59.03094518-119.92602548 11.80618903-43.49648592 14.91308089-88.23572859 9.32067555-132.35359289-5.59240533-45.98199941-20.50548622-89.47848533-44.1178643-129.86807941-22.36962133-37.90408059-49.08889125-68.97299911-82.02194488-96.31364742h-4.97102697v-1.8641351c-15.53445925-6.2137837-24.85513482-22.36962133-21.74824295-37.9040806v-3.10689185c2.48551348-9.32067555 8.07791882-17.39859437 16.777216-22.36962133 7.45654045-4.34964859 16.15583763-5.59240533 23.61237807-3.72827022l116.81913363 22.36962133c18.01997275 4.34964859 30.44754015 22.36962133 26.71926992 39.7682157v3.10689185c-3.72827022 16.15583763-18.64135111 27.3406483-33.554432 27.3406483-2.48551348 0-4.34964859 0-6.83516207-0.62137836l-13.04894578-2.48551349c11.18481067 14.29170252 21.74824297 29.82616178 31.06891852 45.98199941 26.71926992 46.60337778 44.1178643 98.17778252 50.95302637 152.23770074z m-298.88299616 71.45851259c20.50548622 0 32.93305363 19.88410785 32.93305364 32.93305363 0 13.04894578-11.80618903 32.93305363-27.96202667 32.93305363h-77.6722963v72.07989097c0 15.53445925-19.88410785 27.96202667-32.93305362 27.96202666-20.50548622 0-32.93305363-14.29170252-32.93305363-27.96202666V598.99297185H396.36764444c-16.15583763 0-27.96202667-19.88410785-27.96202667-32.93305363 0-13.04894578 11.80618903-32.93305363 27.96202667-32.93305363H474.03994074v-34.17581037H396.36764444c-15.53445925 0-27.96202667-19.88410785-27.96202667-32.93305363 0-13.04894578 11.80618903-32.93305363 27.96202667-32.93305362h42.25372918L380.83318519 385.86019082c-6.2137837-6.2137837-9.94205392-14.91308089-9.94205393-22.99099971 0-8.69929718 3.72827022-16.777216 9.94205393-22.9909997 13.04894578-13.04894578 32.93305363-13.04894578 46.60337777 0l79.5364314 65.24472889 75.18678283-70.21575585c6.2137837-6.2137837 14.29170252-9.94205392 22.9909997-9.94205393 8.69929718 0 16.777216 3.72827022 22.9909997 9.94205393s9.94205392 14.29170252 9.94205393 22.9909997c0 8.69929718-3.72827022 16.777216-9.94205393 22.9909997l-0.62137837 0.62137837-59.03094519 50.95302637h44.1178643c10.5634323 0 27.96202667 4.34964859 27.96202666 32.93305363 0 20.50548622-14.91308089 32.93305363-27.96202666 32.93305363h-72.70126934v34.17581037h73.3226477z m-86.99297184-367.23461689c-67.73024237-3.10689185-134.217728 12.42756741-191.38453808 45.36062104-41.01097245 23.61237808-76.42953955 54.05991822-104.39156621 91.34262045-27.3406483 36.03994548-47.22475615 76.42953955-59.0309452 119.92602548-11.80618903 43.49648592-14.91308089 88.23572859-9.32067555 132.35359288 5.59240533 45.36062103 20.50548622 89.47848533 44.1178643 129.86807941 0.62137837 0.62137837 0.62137837 1.24275675 0.62137837 1.24275674 14.29170252 26.71926992 32.93305363 50.95302637 57.16681008 73.94402608l5.59240533 1.24275674c18.64135111 4.34964859 30.44754015 22.36962133 26.71926992 39.7682157v3.10689185c-3.72827022 16.15583763-18.64135111 27.3406483-33.554432 27.3406483-2.48551348 0-4.34964859 0-6.83516207-0.62137837L138.49562074 807.7761043c-18.01997275-4.34964859-30.44754015-22.36962133-26.71926993-39.76821571v-1.86413511c1.24275675-8.69929718 6.2137837-16.777216 13.67032415-22.36962133 8.07791882-5.59240533 18.01997275-7.45654045 26.71926993-5.59240533l16.777216 3.10689185c-5.59240533-8.69929718-11.18481067-18.01997275-16.15583763-27.3406483-27.3406483-46.60337778-44.73924267-98.17778252-51.57440474-152.23770074-6.83516208-52.19578311-3.10689185-104.39156622 10.56343229-155.96597096 13.67032415-50.95302637 36.66132385-98.79916089 68.97299911-141.05289008 33.554432-43.49648592 74.56540445-80.15780978 122.41153897-107.49845807 67.73024237-39.14683733 145.40253867-57.78818845 224.93897007-54.05991822 16.777216 0.62137837 29.82616178 14.91308089 29.2047834 31.69029688 0 18.01997275-14.29170252 31.06891852-31.06891851 30.44754015z" fill="#12e6cd" p-id="16642"></path></svg>