<?xml version="1.0" standalone="no"?><!DOCTYPE svg PUBLIC "-//W3C//DTD SVG 1.1//EN" "http://www.w3.org/Graphics/SVG/1.1/DTD/svg11.dtd"><svg t="1711727637852" class="icon" viewBox="0 0 1024 1024" version="1.1" xmlns="http://www.w3.org/2000/svg" p-id="6795" xmlns:xlink="http://www.w3.org/1999/xlink" width="64" height="64"><path d="M511 64C263.024 64 62 265.024 62 513s201.024 449 449 449 449-201.024 449-449S758.976 64 511 64z m0 72c208.211 0 377 168.789 377 377S719.211 890 511 890 134 721.211 134 513s168.789-377 377-377z" fill="#6862F0" p-id="6796"></path><path d="M776.904 783.201c13.559-14.268 36.027-14.98 50.46-1.704l0.435 0.407 120.655 114.655c14.413 13.696 14.994 36.482 1.298 50.895-13.56 14.269-36.028 14.98-50.46 1.704l-0.435-0.406L778.2 834.096c-14.412-13.696-14.993-36.482-1.297-50.895z" fill="#6862F0" p-id="6797"></path><path d="M470.76 312.821l-51.427 74.01-86.28 26.04a49 49 0 0 0-15.472 7.884l-0.641 0.495c-20.995 16.483-24.956 46.823-8.756 68.161l54.496 71.781-1.896 90.104a49 49 0 0 0 2.716 17.15l0.273 0.764c9.188 25.06 36.819 38.204 62.12 29.39l85.106-29.648 85.109 29.648a49 49 0 0 0 17.15 2.716l0.81-0.023c26.674-0.994 47.712-23.212 47.148-49.997l-1.897-90.104 54.497-71.78a49 49 0 0 0 7.883-15.473l0.228-0.777c7.297-25.675-7.332-52.55-32.98-60.29l-86.281-26.041-51.427-74.01a49 49 0 0 0-12.278-12.278c-22.224-15.443-52.758-9.945-68.2 12.278zM511 381.088l37.111 53.409 0.354 0.502a49 49 0 0 0 25.728 18.447l62.262 18.791-39.326 51.8-0.368 0.49a49 49 0 0 0-9.594 30.17l1.368 65.021-61.416-21.394-0.603-0.206a49 49 0 0 0-31.635 0.206l-61.417 21.394 1.37-65.021 0.008-0.614a49 49 0 0 0-9.971-30.047l-39.327-51.799 62.263-18.79a49 49 0 0 0 26.082-18.95L511 381.088z" fill="#FFBA00" p-id="6798"></path></svg>