<svg xmlns="http://www.w3.org/2000/svg" xmlns:xlink="http://www.w3.org/1999/xlink" width="24" height="24" viewBox="0 0 24 24" fill="none"><path id="Shape" fill-rule="evenodd" style="fill:#1890FF" opacity="1" d="M17.84 7.86L12.98 7.86L12.98 9.42L16.87 9.42C16.87 9.42 16.48 11.59 15.26 13.74C17.97 14.7 21.78 16.19 23.04 16.69C23.66 15.25 24 13.66 24 12C24 5.38 18.62 0 12 0C5.38 0 0 5.38 0 12C0 18.62 5.38 24 12 24C15.99 24 19.54 22.04 21.72 19.03C19.66 18 16.26 16.32 14.16 15.3C13.16 16.43 11.69 17.58 10.02 18.07C8.97 18.38 8.03 18.5 7.04 18.3C6.06 18.1 5.34 17.64 4.92 17.18C4.7 16.95 4.46 16.65 4.28 16.3C4.28 16.3 4.21 16.19 4.13 15.91L4.05 15.48C4.04 15.39 4.04 15.29 4.04 15.18C4.04 15 4.04 14.81 4.08 14.62C4.18 14.14 4.38 13.59 4.91 13.08C6.06 11.95 7.6 11.89 8.4 11.89C9.58 11.9 11.63 12.42 13.36 13.03C13.84 12.01 14.15 10.92 14.34 10.19L7.16 10.19L7.16 9.42L10.85 9.42L10.85 7.86L6.38 7.86L6.38 7.08L10.85 7.08L10.85 5.53C10.85 5.31 10.89 5.14 11.24 5.14L12.98 5.14L12.98 7.08L17.84 7.08L17.84 7.86ZM4.7291 14.4985C4.6091 15.0785 4.6991 15.7985 5.2591 16.3685C5.9291 17.0585 6.9591 17.2385 7.3991 17.2785C8.6091 17.3585 9.8891 16.7685 10.8591 16.0785C11.2391 15.8185 11.8891 15.2785 12.5091 14.4485C11.1191 13.7285 9.3791 12.9385 7.5291 13.0185C6.5791 13.0485 5.8991 13.2485 5.3991 13.5085C5.1191 13.7385 4.8091 14.0685 4.7291 14.4985Z"></path></svg>