<?xml version="1.0" standalone="no"?><!DOCTYPE svg PUBLIC "-//W3C//DTD SVG 1.1//EN" "http://www.w3.org/Graphics/SVG/1.1/DTD/svg11.dtd"><svg class="icon" width="200px" height="200.00px" viewBox="0 0 1024 1024" version="1.1" xmlns="http://www.w3.org/2000/svg"><path d="M891.521196 1015.978822a79.494996 79.494996 0 0 1-26.04323-20.001747l-4.027655-5.119901c-138.203195-0.102398-276.269859 0-414.473054-0.102398a726.343291 726.343291 0 0 1-117.313998-8.191842 630.771805 630.771805 0 0 1-102.329755-24.438994l-8.567301-2.901277c-7.91878-2.730614-15.803428-5.666024-23.585678-8.772097l-3.788727-1.604236-9.625413-4.027655A442.359448 442.359448 0 0 1 142.616208 921.60198a366.687311 366.687311 0 0 1-36.419562-23.039555l-8.6697-6.51934-8.396637-6.826535a233.433354 233.433354 0 0 1-43.894618-47.717478 166.977038 166.977038 0 0 1-23.653943-52.188857A147.214221 147.214221 0 0 1 17.076235 750.187694a158.580401 158.580401 0 0 1 1.809032-25.462975c2.355154-15.427968 7.611586-30.719406 16.656745-43.587424a83.727448 83.727448 0 0 1 45.089261-31.914049c13.482406-4.164186 27.647465-4.98337 41.675994-4.642044a431.53939 431.53939 0 0 1-52.086459-215.5137c1.297042-77.003311 23.790473-153.59703 64.442487-219.200029a441.062406 441.062406 0 0 1 173.63291-160.560096A443.28103 443.28103 0 0 1 515.856992 0.019797c17.646592 0.170663 35.088388 1.331174 52.393654 3.481533l5.734289 0.785051a441.164804 441.164804 0 0 1 265.313271 138.544522 436.795822 436.795822 0 0 1 108.91736 219.677886c14.30159 81.269895 5.154034 166.533314-26.794148 242.717441a80.484844 80.484844 0 0 1 62.0532 23.005422 78.334486 78.334486 0 0 1 23.210218 49.28758l0.204796 3.208471 0.034133 1.092246v265.074342a75.672137 75.672137 0 0 1-1.194644 11.912303l-1.297041 5.802554a79.256068 79.256068 0 0 1-56.079983 56.489575 79.187802 79.187802 0 0 1-12.697354 2.42342l-6.485208 0.443724c-12.970416 0.341327-26.009097-2.321022-37.648339-7.987045zM603.134238 732.165642a27.374404 27.374404 0 0 1-19.967614 43.177832 639.714566 639.714566 0 0 1-106.391543 1.740766 980.973035 980.973035 0 0 1-133.80008-17.851388 1267.038971 1267.038971 0 0 1-129.021505-33.108693c-13.209345-4.33485-26.55522-8.499036-39.423238-13.926131-20.138277-7.543321-41.437066-13.209345-63.077181-12.629089l-1.194643 0.034133-2.525818 0.204796c-9.386485 0.921582-19.14843 3.788727-25.292311 11.229649-7.167861 9.045158-9.045158 20.889196-9.625414 32.050581a99.32608 99.32608 0 0 0 14.403988 56.899166c2.457552 4.130053 5.119901 8.123576 7.91878 11.946436 14.335723 19.387359 33.211091 35.190786 53.246971 48.536662 27.852262 18.329246 58.366872 32.221244 89.837196 43.075433 63.828099 21.913176 131.547323 31.982315 199.130017 32.084713h409.250755v-106.732869c0-35.634511 0-71.234889-0.102398-106.869401-5.597758-5.119901-12.629089-8.464903-19.284961-11.946436-25.394709-12.39016-52.905644-19.558022-80.553109-24.78032-37.443543-6.963065-75.467341-9.864343-113.525272-10.683527a1229.458897 1229.458897 0 0 0-132.26411 4.98337c-11.605109 1.39944-22.937157 4.98337-33.006295 10.785925l-4.539645 2.833012a57.923147 57.923147 0 0 0-3.754594 2.798879l2.286889-1.740766a53.144573 53.144573 0 0 0-18.772971 24.780321c44.543139 4.744442 89.768931 6.246279 134.516866 1.501837a28.022925 28.022925 0 0 1 25.53124 11.605109zM475.751101 334.17867h-105.947819a27.135475 27.135475 0 0 0-16.144754 5.290564l-2.662349 2.184491a25.940832 25.940832 0 0 0-2.321021 2.525818 25.360576 25.360576 0 0 0-3.925258 6.246279l-1.228776 3.31087a27.647465 27.647465 0 0 0 26.282158 35.190786h115.163641v47.103089h-0.034133v0.136531l-0.068265-0.034133v0.068266h-109.224555c-6.075616-0.102398-12.492558 0.102398-17.987919 3.003675a27.306139 27.306139 0 0 0-12.185365 12.048834l-1.297041 3.037808a25.940832 25.940832 0 0 0-1.570103 10.273934c0 11.297915 8.328372 21.640115 18.943633 25.121648l3.106074 0.819184c1.126378 0.204796 2.252756 0.341327 3.413267 0.341327h116.767876v0.034133h0.136531v87.58444c0 6.38281 2.355154 12.629089 6.451075 17.510061a28.330119 28.330119 0 0 0 29.695426 8.499036 27.374404 27.374404 0 0 0 19.011899-27.306139v-86.287398l0.238929-0.034133v-0.068265h115.880426a26.964812 26.964812 0 0 0 22.800626-13.7896 27.920527 27.920527 0 0 0-0.580256-28.022925l-1.331174-1.877297-0.785051-1.023981a27.237873 27.237873 0 0 0-12.902151-8.533168 34.064408 34.064408 0 0 0-11.22965-1.297042l-111.818638 0.034133v-0.307194h-0.13653v-47.103089h114.822313a27.476802 27.476802 0 0 0 23.278483-42.25625l0.204796 0.238929a27.5792 27.5792 0 0 0-22.391033-12.526691h-106.835268l0.068265-0.136531 0.068265-0.102398h-0.204796c29.934355-29.388232 59.732179-59.049525 89.564135-88.676686a27.613333 27.613333 0 0 0 5.2223-30.309814 27.988792 27.988792 0 0 0-35.395583-13.891998c-5.631891 2.013828-9.727812 6.416943-13.721335 10.581129-27.306139 27.06721-54.64641 54.270951-82.089079 81.304028L426.668316 207.751247a27.749864 27.749864 0 0 0-15.018376-7.91878 26.55522 26.55522 0 0 0-9.488883-0.341326 29.11517 29.11517 0 0 0-11.570976 4.437247 27.306139 27.306139 0 0 0-6.826535 38.228594c3.379135 4.573778 7.850515 8.29424 11.707507 12.356028 26.828281 26.55522 53.520032 53.11044 80.484844 79.563262-0.102398 0.034133-0.068265 0.068265-0.034133 0.102398h-0.170663z" fill="#409EFF" /></svg>