<?xml version="1.0" standalone="no"?><!DOCTYPE svg PUBLIC "-//W3C//DTD SVG 1.1//EN" "http://www.w3.org/Graphics/SVG/1.1/DTD/svg11.dtd"><svg t="1711728621710" class="icon" viewBox="0 0 1024 1024" version="1.1" xmlns="http://www.w3.org/2000/svg" p-id="15084" width="128" height="128" xmlns:xlink="http://www.w3.org/1999/xlink"><path d="M176.9 429.5H847v437.8H176.9z" fill="#8ADCFF" p-id="15085"></path><path d="M203.6 111.6h616.9v98.8H203.6z" fill="#FEF8E6" p-id="15086"></path><path d="M932 451.2H92l111.6-240.8h616.8z" fill="#F77490" p-id="15087"></path><path d="M594.6 451.2c0 46.3-37.5 83.8-83.8 83.8S427 497.5 427 451.2" fill="#D30032" p-id="15088"></path><path d="M427.1 451.2c0 46.3-37.5 83.8-83.8 83.8s-83.8-37.5-83.8-83.8" fill="#FFA300" p-id="15089"></path><path d="M259.5 451.2c0 46.3-37.5 83.8-83.8 83.8S92 497.5 92 451.2M929.6 451.2c0 46.3-37.5 83.8-83.8 83.8S762 497.5 762 451.2" fill="#D30032" p-id="15090"></path><path d="M762.1 451.2c0 46.3-37.5 83.8-83.8 83.8s-83.8-37.5-83.8-83.8" fill="#FFA300" p-id="15091"></path><path d="M427.1 451H259.5l50.7-240.6h116.9zM594.6 451h167.5l-50.7-240.6H594.6z" fill="#FDF17F" p-id="15092"></path><path d="M581.8 545h180.3v322.4H581.8zM273.4 588.1h206.9v148.2H273.4z" fill="#FFFFFF" p-id="15093"></path><path d="M240.2 736.4h273.3v60.9H240.2z" fill="#F77490" p-id="15094"></path><path d="M113.4 861.5h785.5v60.9H113.4z" fill="#00A4FF" p-id="15095"></path><path d="M847.1 871.5c-5.5 0-10-4.5-10-10V535c0-5.5 4.5-10 10-10s10 4.5 10 10v326.5c0 5.6-4.5 10-10 10zM176.9 871.5c-5.5 0-10-4.5-10-10V535c0-5.5 4.5-10 10-10s10 4.5 10 10v326.5c0 5.6-4.4 10-10 10z" fill="#00A4FF" p-id="15096"></path><path d="M820.4 220.4H203.6c-5.5 0-10-4.5-10-10v-98.8c0-5.5 4.5-10 10-10h616.9c5.5 0 10 4.5 10 10v98.8c-0.1 5.6-4.5 10-10.1 10z m-606.8-20h596.9v-78.8H213.6v78.8z" fill="#F7D59F" p-id="15097"></path><path d="M510.8 545c-51.7 0-93.8-42.1-93.8-93.8 0-5.5 4.5-10 10-10s10 4.5 10 10c0 40.7 33.1 73.8 73.8 73.8s73.8-33.1 73.8-73.8c0-5.5 4.5-10 10-10s10 4.5 10 10c0 51.7-42.1 93.8-93.8 93.8zM175.8 545c-51.7 0-93.8-42.1-93.8-93.8 0-5.5 4.5-10 10-10s10 4.5 10 10c0 40.7 33.1 73.8 73.8 73.8s73.8-33.1 73.8-73.8c0-5.5 4.5-10 10-10s10 4.5 10 10c-0.1 51.7-42.1 93.8-93.8 93.8zM845.9 545c-51.7 0-93.8-42.1-93.8-93.8 0-5.5 4.5-10 10-10s10 4.5 10 10c0 40.7 33.1 73.8 73.8 73.8s73.8-33.1 73.8-73.8c0-5.5 4.5-10 10-10s10 4.5 10 10c-0.1 51.7-42.1 93.8-93.8 93.8z" fill="#AA0404" p-id="15098"></path><path d="M762.1 871.5c-5.5 0-10-4.5-10-10V555H591.8v306.5c0 5.5-4.5 10-10 10s-10-4.5-10-10V545c0-5.5 4.5-10 10-10h180.4c5.5 0 10 4.5 10 10v316.5c-0.1 5.6-4.6 10-10.1 10zM480.3 746.4H273.4c-5.5 0-10-4.5-10-10V588.1c0-5.5 4.5-10 10-10h206.9c5.5 0 10 4.5 10 10v148.2c0 5.6-4.5 10.1-10 10.1z m-196.9-20h186.9V598.1H283.4v128.3z" fill="#978CDB" p-id="15099"></path><path d="M513.5 807.2H240.2c-5.5 0-10-4.5-10-10v-60.9c0-5.5 4.5-10 10-10h273.3c5.5 0 10 4.5 10 10v60.9c0 5.5-4.5 10-10 10z m-263.3-20h253.3v-40.9H250.2v40.9z" fill="#D30032" p-id="15100"></path><path d="M898.9 932.4H113.4c-5.5 0-10-4.5-10-10v-60.9c0-5.5 4.5-10 10-10h785.5c5.5 0 10 4.5 10 10v60.9c0 5.5-4.5 10-10 10z m-775.5-20h765.5v-40.9H123.4v40.9z" fill="#0074FF" p-id="15101"></path><path d="M343.3 545c-51.7 0-93.8-42.1-93.8-93.8 0-5.5 4.5-10 10-10s10 4.5 10 10c0 40.7 33.1 73.8 73.8 73.8s73.8-33.1 73.8-73.8c0-5.5 4.5-10 10-10s10 4.5 10 10c0 51.7-42.1 93.8-93.8 93.8zM678.4 545c-51.7 0-93.8-42.1-93.8-93.8 0-5.5 4.5-10 10-10s10 4.5 10 10c0 40.7 33.1 73.8 73.8 73.8s73.8-33.1 73.8-73.8c0-5.5 4.5-10 10-10s10 4.5 10 10c-0.1 51.7-42.1 93.8-93.8 93.8z" fill="#FF7900" p-id="15102"></path><path d="M427.1 461H259.5c-3 0-5.9-1.4-7.8-3.7-1.9-2.3-2.6-5.4-2-8.4l50.7-240.5c1-4.6 5.1-7.9 9.8-7.9H427c5.5 0 10 4.5 10 10V451c0.1 5.5-4.4 10-9.9 10z m-155.2-20h145.2V220.4h-98.7L271.9 441zM762.1 461H594.6c-5.5 0-10-4.5-10-10V210.4c0-5.5 4.5-10 10-10h116.8c4.7 0 8.8 3.3 9.8 7.9l50.7 240.5c0.6 2.9-0.1 6-2 8.4-1.9 2.4-4.8 3.8-7.8 3.8z m-157.5-20h145.2l-46.5-220.5h-98.7V441z" fill="#D30032" p-id="15103"></path><path d="M932 461.2H92c-3.4 0-6.6-1.7-8.4-4.6s-2.1-6.5-0.6-9.6l111.6-240.8c1.6-3.5 5.2-5.8 9.1-5.8h616.9c3.9 0 7.4 2.3 9.1 5.8L941.1 447c1.4 3.1 1.2 6.7-0.6 9.6-1.9 2.9-5.1 4.6-8.5 4.6z m-824.3-20h808.7L814 220.4H210L107.7 441.2z" fill="#D30032" p-id="15104"></path></svg>