<svg xmlns="http://www.w3.org/2000/svg" xmlns:xlink="http://www.w3.org/1999/xlink" width="24" height="24" viewBox="0 0 24 24" fill="none"><path id="Shape" fill-rule="evenodd" style="fill:#000000" opacity="0.2" d="M12 0C5.37 0 0 5.37 0 12C0 18.63 5.37 24 12 24C18.63 24 24 18.63 24 12C24 5.37 18.63 0 12 0ZM18.0056 16.0347L18.0056 9.9447C18.0256 7.6447 15.8856 7.3947 12.0456 8.8047L12.9456 9.0547C12.8656 9.3247 12.5756 9.7447 12.2056 10.2047L17.3456 10.2047L17.3456 11.2747L14.4456 11.2747L14.4456 12.6047L17.3256 12.6047L17.3256 13.6647L14.4456 13.6647L14.4456 15.9047C14.8856 15.7547 15.2856 15.5547 15.6356 15.2947L15.3756 14.3147L16.7356 13.8847L17.8656 16.7247L16.1956 17.4347L15.8956 16.3047C15.1556 16.8947 13.5956 17.7347 10.8856 17.6647C7.9856 17.7347 8.7356 14.3147 8.7356 14.3147L10.8456 14.2747C10.8408 14.381 10.8272 14.5037 10.8127 14.6341C10.7674 15.0434 10.7136 15.5289 10.8956 15.8247C11.0956 16.1447 11.5956 16.2047 11.9256 16.2147C11.9256 16.2147 11.9956 16.2247 12.0356 16.2247L12.0356 13.6647L9.0856 13.6647L9.0856 12.6047L12.0356 12.6047L12.0356 11.2747L11.2756 11.2747C10.6156 11.9947 10.0056 12.5947 10.0056 12.5947L9.1156 11.7947C9.7456 11.1147 10.3856 10.0347 10.7756 9.3047C10.4456 9.4447 10.1156 9.5847 9.7956 9.7347C9.4656 10.1647 9.0856 10.6047 8.6556 11.0347L7.2056 10.1847C7.2784 10.121 7.34969 10.0538 7.41944 9.98361C7.46628 9.98908 7.5141 9.9919 7.5627 9.9919C8.1627 9.9919 8.6427 9.5619 8.6427 9.0319C8.6427 8.8467 8.58624 8.67444 8.48784 8.52802C9.19964 7.28377 9.5856 6.0047 9.5856 6.0047L11.6956 6.6147C11.6956 6.6147 11.5256 7.0347 11.1556 7.6847C19.6356 5.2247 20.1356 9.1847 20.1356 9.1847C20.1356 9.1847 20.6856 11.9247 20.2456 16.2247C19.7956 20.5247 14.3356 18.9247 14.3356 18.9247L14.6356 17.6947L15.8956 17.9747C18.2356 18.1247 18.0056 16.0347 18.0056 16.0347ZM8.48784 8.52802C8.29934 8.24753 7.95692 8.0619 7.5627 8.0619C6.9627 8.0619 6.4827 8.4919 6.4827 9.0319C6.4827 9.51897 6.88808 9.92158 7.41944 9.98361C7.83039 9.57005 8.18802 9.05212 8.48784 8.52802ZM7.8628 11.6775C8.6028 12.4175 8.5028 13.4275 8.0728 14.7675C7.6428 16.0675 7.7528 15.5875 6.0528 19.2175L3.6028 17.7075C3.6028 17.7075 6.3328 15.2475 6.9028 14.1275C7.4928 12.9375 6.2428 12.3075 6.2428 12.3075L4.3628 11.1575L5.3828 9.6075C6.8028 10.6475 6.9028 10.7375 7.8628 11.6775Z"></path></svg>